<?xml version="1.0" standalone="no"?>
<!DOCTYPE svg PUBLIC "-//W3C//DTD SVG 20010904//EN"
 "http://www.w3.org/TR/2001/REC-SVG-20010904/DTD/svg10.dtd">
<svg version="1.0" xmlns="http://www.w3.org/2000/svg"
 width="771.000000pt" height="771.000000pt" viewBox="0 0 771.000000 771.000000"
 preserveAspectRatio="xMidYMid meet">

<g transform="translate(0.000000,771.000000) scale(0.100000,-0.100000)"
fill="#000000" stroke="none">
<path d="M5085 5859 c-839 -38 -1575 -165 -2055 -356 -472 -187 -744 -440
-806 -748 -22 -107 -14 -290 16 -394 42 -141 217 -539 397 -903 l103 -208
-164 -162 c-289 -288 -455 -524 -537 -768 -56 -166 -52 -389 8 -452 38 -40 94
-39 135 3 30 30 31 31 22 97 -15 116 -9 191 26 293 52 156 153 318 315 506 92
107 278 293 294 293 4 0 43 -58 85 -130 482 -812 929 -1149 1328 -1000 298
111 538 516 718 1214 100 387 123 552 96 688 -32 164 -116 263 -271 320 -81
29 -298 32 -425 4 -396 -85 -938 -364 -1387 -712 l-82 -64 -34 64 c-122 230
-376 791 -422 931 -115 353 21 616 435 842 470 258 1409 428 2465 449 159 3
292 10 308 16 30 12 57 53 57 88 0 33 -26 75 -55 88 -30 14 -279 14 -570 1z
m-367 -1894 c102 -31 151 -99 159 -224 6 -86 -27 -268 -98 -541 -155 -600
-351 -967 -573 -1071 -82 -38 -145 -46 -224 -25 -227 58 -476 295 -757 721
-88 132 -225 362 -225 376 0 10 288 222 414 304 347 226 761 414 1011 459 107
19 230 20 293 1z"/>
</g>
</svg>
